# xmcd
#
# Track frame offsets:
#	150
#	5885
#	28658
#	48711
#	61132
#	86445
#	105044
#	123850
#	147797
#	166215
#	186131
#	206704
#	230260
#	251889
#	273941
#	298217
#	299076
#	322786
#
# Disc length: 4309 seconds
#
# Revision: 2
# Processed by: cddbd v1.5.2PL0 Copyright (c) Steve Scherf et al.
# Submitted via: audiograbber 1.83.01
#
DISCID=0510d312
DTITLE=Daily Plannet - Team Daily
DYEAR=2003
DGENRE=Hip-Hop
TTITLE0=Daily Plannet - What Up Ak
TTITLE1=Daily Plannet - Still Phantoms
TTITLE2=Daily Plannet - Whatever (Revisited)
TTITLE3=Daily Plannet, Mr. Greenweedz, Rita J - Real Quick
TTITLE4=Daily Plannet, El Da Sensei, Theaster - Triple Beam
TTITLE5=Daily Plannet, Tanya Reed - My World
TTITLE6=Daily Plannet - We Like To Party
TTITLE7=Daily Plannet, Rita J - Love It
TTITLE8=Daily Plannet, Wildchild - Soul She Feel
TTITLE9=Daily Plannet - Paragon
TTITLE10=Daily Plannet, Jovizee - Lovin' Living
TTITLE11=Daily Plannet - Team Daily
TTITLE12=Daily Plannet - What's Going
TTITLE13=Daily Plannet, Iomos Marad - Why You Wanna
TTITLE14=Daily Plannet, Capital D - Microphone Professionals
TTITLE15=Daily Plannet - Untitled Track
TTITLE16=Daily Plannet - Unforgettable Force
TTITLE17=Daily Plannet - Untitled Track
EXTD=www.RapMusicGuide.com
EXTT0=
EXTT1=
EXTT2=
EXTT3=
EXTT4=
EXTT5=
EXTT6=
EXTT7=
EXTT8=
EXTT9=
EXTT10=
EXTT11=
EXTT12=
EXTT13=
EXTT14=
EXTT15=
EXTT16=
EXTT17=
PLAYORDER=
